# Blender 4.3.0
# www.blender.org
mtllib cue_stick.mtl
o cue_stick.001
v -0.715104 -0.005623 -0.011840
v -0.715113 -0.003192 -0.009269
v -0.001690 0.000094 -0.009896
v -0.001682 -0.001863 -0.011967
v -0.715117 -0.001510 -0.006157
v -0.001693 0.001449 -0.007390
v -0.715113 -0.000691 -0.002715
v -0.001690 0.002108 -0.004618
v -0.715101 -0.000790 0.000822
v -0.001680 0.002028 -0.001770
v -0.715083 -0.001802 0.004213
v -0.001666 0.001213 0.000959
v -0.715060 -0.003657 0.007226
v -0.001647 -0.000280 0.003386
v -0.715033 -0.006228 0.009656
v -0.001625 -0.002351 0.005343
v -0.715004 -0.009341 0.011338
v -0.001602 -0.004857 0.006698
v -0.714975 -0.012782 0.012157
v -0.001579 -0.007628 0.007357
v -0.714949 -0.016319 0.012057
v -0.001558 -0.010476 0.007277
v -0.714926 -0.019710 0.011047
v -0.001539 -0.013206 0.006462
v -0.714910 -0.022723 0.009192
v -0.001526 -0.015632 0.004968
v -0.714898 -0.025153 0.006620
v -0.001516 -0.017590 0.002898
v -0.714894 -0.026835 0.003508
v -0.001514 -0.018944 0.000392
v -0.714899 -0.027655 0.000065
v -0.001518 -0.019604 -0.002380
v -0.714910 -0.027555 -0.003472
v -0.001527 -0.019524 -0.005228
v -0.714929 -0.026543 -0.006862
v -0.001541 -0.018710 -0.007958
v -0.714952 -0.024689 -0.009875
v -0.001561 -0.017216 -0.010384
v -0.714979 -0.022118 -0.012306
v -0.001581 -0.015146 -0.012341
v -0.715008 -0.019004 -0.013988
v -0.001605 -0.012639 -0.013696
v -0.715037 -0.015563 -0.014806
v -0.001628 -0.009867 -0.014355
v -0.715064 -0.012026 -0.014707
v -0.001650 -0.007019 -0.014275
v -0.715086 -0.008636 -0.013695
v -0.001668 -0.004289 -0.013460
v 0.675213 0.001467 -0.009229
v 0.675217 0.000345 -0.010415
v 0.675211 0.002242 -0.007793
v 0.675213 0.002621 -0.006204
v 0.675218 0.002574 -0.004572
v 0.675227 0.002107 -0.003007
v 0.675238 0.001251 -0.001617
v 0.675250 0.000065 -0.000495
v 0.675264 -0.001371 0.000281
v 0.675277 -0.002959 0.000659
v 0.675290 -0.004592 0.000614
v 0.675300 -0.006156 0.000147
v 0.675307 -0.007547 -0.000710
v 0.675313 -0.008669 -0.001896
v 0.675314 -0.009444 -0.003332
v 0.675312 -0.009823 -0.004921
v 0.675306 -0.009776 -0.006553
v 0.675299 -0.009309 -0.008118
v 0.675288 -0.008453 -0.009507
v 0.675275 -0.007267 -0.010629
v 0.675262 -0.005831 -0.011406
v 0.675249 -0.004243 -0.011784
v 0.675237 -0.002610 -0.011738
v 0.675226 -0.001046 -0.011271
v 0.702737 0.001675 -0.009312
v 0.702742 0.000553 -0.010499
v 0.702735 0.002451 -0.007876
v 0.702738 0.002829 -0.006288
v 0.702743 0.002784 -0.004655
v 0.702752 0.002317 -0.003091
v 0.702762 0.001462 -0.001700
v 0.702775 0.000275 -0.000579
v 0.702788 -0.001161 0.000197
v 0.702802 -0.002750 0.000575
v 0.702814 -0.004381 0.000529
v 0.702823 -0.005946 0.000062
v 0.702832 -0.007336 -0.000794
v 0.702836 -0.008458 -0.001980
v 0.702838 -0.009235 -0.003416
v 0.702836 -0.009612 -0.005005
v 0.702831 -0.009567 -0.006637
v 0.702823 -0.009100 -0.008202
v 0.702812 -0.008244 -0.009592
v 0.702799 -0.007058 -0.010714
v 0.702786 -0.005622 -0.011490
v 0.702774 -0.004033 -0.011868
v 0.702761 -0.002402 -0.011821
v 0.702750 -0.000837 -0.011354
v 0.704417 0.000962 -0.008792
v 0.704421 0.000001 -0.009809
v 0.704415 0.001627 -0.007562
v 0.704417 0.001951 -0.006201
v 0.704421 0.001911 -0.004803
v 0.704429 0.001512 -0.003462
v 0.704437 0.000778 -0.002271
v 0.704448 -0.000239 -0.001310
v 0.704460 -0.001469 -0.000646
v 0.704471 -0.002830 -0.000322
v 0.704481 -0.004227 -0.000361
v 0.704491 -0.005568 -0.000761
v 0.704497 -0.006759 -0.001494
v 0.704502 -0.007720 -0.002510
v 0.704503 -0.008384 -0.003741
v 0.704501 -0.008708 -0.005102
v 0.704497 -0.008669 -0.006500
v 0.704489 -0.008269 -0.007841
v 0.704480 -0.007536 -0.009031
v 0.704469 -0.006520 -0.009992
v 0.704458 -0.005289 -0.010657
v 0.704448 -0.003929 -0.010981
v 0.704436 -0.002530 -0.010941
v 0.704427 -0.001190 -0.010542
v 0.705970 -0.003368 -0.005656
v 0.705868 -0.004478 -0.004290
v 0.705762 -0.005782 -0.005406
v 0.705862 -0.004733 -0.006766
v 0.705843 -0.002258 -0.007021
v 0.705724 -0.000956 -0.005904
v 0.705848 -0.002002 -0.004545
v 0.705401 -0.001095 -0.008454
v 0.705311 0.000077 -0.007364
v 0.705453 -0.005647 -0.002854
v 0.705374 -0.006823 -0.003945
v 0.705412 -0.000572 -0.003378
v 0.705340 -0.001663 -0.002204
v 0.705747 -0.003120 -0.003242
v 0.705441 -0.006171 -0.007930
v 0.705368 -0.007098 -0.006623
v 0.705344 -0.005082 -0.009104
v 0.705737 -0.003617 -0.008068
v 0.705317 0.000353 -0.004685
v 0.705050 -0.003840 -0.010171
v 0.705324 -0.002402 -0.009380
v 0.705025 0.001143 -0.006119
v 0.705070 -0.002909 -0.001136
v 0.705361 -0.004342 -0.001929
v 0.705096 -0.007891 -0.005188
v -0.715093 -0.006534 -0.010719
v -0.715103 -0.004363 -0.008423
v -0.715105 -0.002860 -0.005641
v -0.715101 -0.002129 -0.002566
v -0.715091 -0.002217 0.000594
v -0.715075 -0.003121 0.003622
v -0.715054 -0.004778 0.006314
v -0.715030 -0.007075 0.008485
v -0.715005 -0.009856 0.009987
v -0.714979 -0.012931 0.010720
v -0.714955 -0.016090 0.010631
v -0.714934 -0.019119 0.009727
v -0.714920 -0.021811 0.008070
v -0.714910 -0.023982 0.005773
v -0.714907 -0.025485 0.002992
v -0.714911 -0.026216 -0.000083
v -0.714921 -0.026128 -0.003243
v -0.714937 -0.025224 -0.006271
v -0.714958 -0.023568 -0.008963
v -0.714982 -0.021270 -0.011135
v -0.715008 -0.018490 -0.012637
v -0.715034 -0.015414 -0.013369
v -0.715057 -0.012255 -0.013279
v -0.715077 -0.009226 -0.012376
v -0.722319 -0.006590 -0.010697
v -0.722329 -0.004418 -0.008401
v -0.722331 -0.002915 -0.005619
v -0.722328 -0.002183 -0.002544
v -0.722317 -0.002273 0.000616
v -0.722301 -0.003177 0.003644
v -0.722280 -0.004833 0.006336
v -0.722256 -0.007131 0.008507
v -0.722230 -0.009911 0.010009
v -0.722205 -0.012986 0.010742
v -0.722181 -0.016146 0.010653
v -0.722161 -0.019174 0.009749
v -0.722145 -0.021866 0.008092
v -0.722136 -0.024037 0.005795
v -0.722133 -0.025540 0.003014
v -0.722137 -0.026272 -0.000061
v -0.722147 -0.026183 -0.003221
v -0.722164 -0.025279 -0.006249
v -0.722184 -0.023623 -0.008941
v -0.722208 -0.021325 -0.011113
v -0.722235 -0.018545 -0.012615
v -0.722259 -0.015470 -0.013347
v -0.722283 -0.012310 -0.013257
v -0.722303 -0.009282 -0.012354
v -0.724457 -0.007965 -0.009020
v -0.724465 -0.006179 -0.007132
v -0.724468 -0.004943 -0.004845
v -0.724465 -0.004342 -0.002317
v -0.724456 -0.004415 0.000280
v -0.724442 -0.005158 0.002771
v -0.724425 -0.006519 0.004984
v -0.724406 -0.008408 0.006770
v -0.724384 -0.010695 0.008005
v -0.724364 -0.013223 0.008607
v -0.724344 -0.015821 0.008534
v -0.724327 -0.018310 0.007790
v -0.724315 -0.020524 0.006429
v -0.724307 -0.022309 0.004539
v -0.724305 -0.023544 0.002253
v -0.724307 -0.024146 -0.000275
v -0.724316 -0.024073 -0.002873
v -0.724329 -0.023330 -0.005363
v -0.724346 -0.021968 -0.007576
v -0.724365 -0.020080 -0.009361
v -0.724386 -0.017794 -0.010597
v -0.724409 -0.015266 -0.011198
v -0.724428 -0.012668 -0.011126
v -0.724445 -0.010177 -0.010383
v -0.727720 -0.014269 -0.001286
v -0.727535 -0.012318 -0.003684
v -0.727301 -0.014703 -0.005525
v -0.727502 -0.016666 -0.003236
v -0.727492 -0.016218 0.001111
v -0.727282 -0.013829 0.002951
v -0.727526 -0.011870 0.000663
v -0.726670 -0.010264 -0.006206
v -0.726472 -0.012557 -0.007833
v -0.726579 -0.018259 0.003627
v -0.726407 -0.015962 0.005253
v -0.726650 -0.009345 0.002708
v -0.726483 -0.007716 0.000413
v -0.727325 -0.010029 -0.001724
v -0.726600 -0.019178 -0.005286
v -0.726435 -0.017261 -0.007348
v -0.726395 -0.020803 -0.002993
v -0.727257 -0.018503 -0.000851
v -0.726444 -0.011258 0.004769
v -0.725865 -0.006321 -0.002109
v -0.726494 -0.008201 -0.004291
v -0.725820 -0.015073 -0.009224
v -0.725739 -0.022188 -0.000474
v -0.726384 -0.020318 0.001712
v -0.725785 -0.013436 0.006642
vn -0.0035 0.6308 -0.7759
vn -0.0042 0.8101 -0.5863
vn -0.0027 0.8101 -0.5862
vn -0.0019 0.6309 -0.7759
vn -0.0045 0.9343 -0.3565
vn -0.0029 0.9343 -0.3565
vn -0.0042 0.9947 -0.1026
vn -0.0026 0.9947 -0.1025
vn -0.0033 0.9874 0.1583
vn -0.0017 0.9874 0.1585
vn -0.0020 0.9127 0.4086
vn -0.0004 0.9127 0.4085
vn -0.0003 0.7759 0.6309
vn 0.0013 0.7759 0.6308
vn 0.0017 0.5862 0.8102
vn 0.0033 0.5862 0.8101
vn 0.0038 0.3565 0.9343
vn 0.0054 0.3566 0.9342
vn 0.0060 0.1026 0.9947
vn 0.0075 0.1026 0.9947
vn 0.0079 -0.1582 0.9874
vn 0.0095 -0.1584 0.9873
vn 0.0096 -0.4083 0.9128
vn 0.0112 -0.4086 0.9126
vn 0.0109 -0.6309 0.7758
vn 0.0125 -0.6307 0.7759
vn 0.0116 -0.8101 0.5861
vn 0.0132 -0.8100 0.5863
vn 0.0119 -0.9342 0.3566
vn 0.0135 -0.9342 0.3565
vn 0.0116 -0.9947 0.1026
vn 0.0132 -0.9946 0.1026
vn 0.0107 -0.9873 -0.1586
vn 0.0123 -0.9873 -0.1583
vn 0.0094 -0.9127 -0.4086
vn 0.0110 -0.9126 -0.4086
vn 0.0077 -0.7759 -0.6308
vn 0.0093 -0.7758 -0.6309
vn 0.0057 -0.5861 -0.8102
vn 0.0073 -0.5862 -0.8101
vn 0.0036 -0.3563 -0.9344
vn 0.0052 -0.3564 -0.9343
vn 0.0014 -0.1025 -0.9947
vn 0.0030 -0.1025 -0.9947
vn -0.0005 0.1584 -0.9874
vn 0.0011 0.1584 -0.9874
vn -0.0022 0.4086 -0.9127
vn -0.0006 0.4086 -0.9127
vn -0.0045 0.8102 -0.5861
vn -0.0037 0.6306 -0.7761
vn -0.0047 0.9343 -0.3565
vn -0.0044 0.9947 -0.1025
vn -0.0036 0.9873 0.1587
vn -0.0023 0.9127 0.4087
vn -0.0006 0.7760 0.6308
vn 0.0014 0.5864 0.8100
vn 0.0036 0.3566 0.9343
vn 0.0057 0.1026 0.9947
vn 0.0077 -0.1581 0.9874
vn 0.0094 -0.4088 0.9126
vn 0.0106 -0.6308 0.7759
vn 0.0114 -0.8101 0.5861
vn 0.0116 -0.9342 0.3565
vn 0.0113 -0.9947 0.1025
vn 0.0105 -0.9873 -0.1587
vn 0.0091 -0.9126 -0.4088
vn 0.0074 -0.7758 -0.6309
vn 0.0054 -0.5865 -0.8099
vn 0.0033 -0.3564 -0.9343
vn 0.0012 -0.1029 -0.9947
vn -0.0008 0.1585 -0.9874
vn -0.0024 0.4086 -0.9127
vn -0.0079 0.8101 -0.5862
vn -0.0071 0.6307 -0.7760
vn -0.0082 0.9343 -0.3565
vn -0.0078 0.9947 -0.1029
vn -0.0070 0.9874 0.1583
vn -0.0057 0.9128 0.4084
vn -0.0040 0.7759 0.6308
vn -0.0020 0.5860 0.8103
vn 0.0001 0.3565 0.9343
vn 0.0023 0.1025 0.9947
vn 0.0042 -0.1583 0.9874
vn 0.0059 -0.4086 0.9127
vn 0.0072 -0.6307 0.7760
vn 0.0080 -0.8099 0.5866
vn 0.0082 -0.9343 0.3564
vn 0.0079 -0.9947 0.1025
vn 0.0071 -0.9874 -0.1582
vn 0.0057 -0.9127 -0.4087
vn 0.0040 -0.7760 -0.6308
vn 0.0020 -0.5863 -0.8101
vn -0.0002 -0.3565 -0.9343
vn -0.0023 -0.1022 -0.9948
vn -0.0042 0.1586 -0.9873
vn -0.0058 0.4084 -0.9128
vn 0.4657 0.5596 -0.6855
vn 0.4655 0.7176 -0.5180
vn 0.6827 0.5927 -0.4273
vn 0.6875 0.4602 -0.5617
vn 0.4651 0.8270 -0.3157
vn 0.6685 0.6948 -0.2652
vn 0.4654 0.8803 -0.0920
vn 0.6391 0.7650 -0.0803
vn 0.4665 0.8737 0.1378
vn 0.6693 0.7341 0.1149
vn 0.4675 0.8080 0.3587
vn 0.6844 0.6671 0.2943
vn 0.4695 0.6872 0.5543
vn 0.6900 0.5647 0.4528
vn 0.4711 0.5200 0.7125
vn 0.6871 0.4304 0.5853
vn 0.4729 0.3178 0.8218
vn 0.6746 0.2684 0.6877
vn 0.4748 0.0941 0.8751
vn 0.6469 0.0834 0.7580
vn 0.4762 -0.1361 0.8688
vn 0.6776 -0.1118 0.7269
vn 0.4775 -0.3566 0.8030
vn 0.6928 -0.2911 0.6597
vn 0.4783 -0.5524 0.6827
vn 0.6978 -0.4497 0.5575
vn 0.4791 -0.7105 0.5154
vn 0.6943 -0.5822 0.4231
vn 0.4796 -0.8199 0.3128
vn 0.6805 -0.6846 0.2612
vn 0.4793 -0.8731 0.0889
vn 0.6511 -0.7551 0.0764
vn 0.4788 -0.8666 -0.1408
vn 0.6797 -0.7238 -0.1190
vn 0.4777 -0.8007 -0.3615
vn 0.6927 -0.6566 -0.2985
vn 0.4762 -0.6801 -0.5574
vn 0.6956 -0.5542 -0.4571
vn 0.4747 -0.5132 -0.7151
vn 0.6900 -0.4200 -0.5896
vn 0.4725 -0.3105 -0.8248
vn 0.6744 -0.2581 -0.6918
vn 0.4707 -0.0865 -0.8781
vn 0.6432 -0.0735 -0.7622
vn 0.4687 0.1435 -0.8716
vn 0.6714 0.1221 -0.7310
vn 0.4673 0.3637 -0.8058
vn 0.6843 0.3016 -0.6639
vn 1.0000 0.0075 -0.0029
vn 0.9903 -0.0845 0.1104
vn 0.9804 -0.1963 0.0179
vn 0.9898 -0.1056 -0.0953
vn 0.9882 0.0994 -0.1162
vn 0.9771 0.2112 -0.0239
vn 0.9887 0.1210 0.0890
vn 0.9308 0.2335 -0.2813
vn 0.9216 0.3412 -0.1852
vn 0.9360 -0.2190 0.2757
vn 0.9279 -0.3270 0.1794
vn 0.9320 0.2857 0.2231
vn 0.9242 0.1895 0.3315
vn 0.9792 0.0285 0.2009
vn 0.9348 -0.2712 -0.2293
vn 0.9272 -0.3572 -0.1128
vn 0.9250 -0.1754 -0.3370
vn 0.9783 -0.0138 -0.2068
vn 0.9223 0.3713 0.1075
vn 0.8812 -0.0417 -0.4709
vn 0.9227 0.1173 -0.3673
vn 0.8785 0.4751 -0.0508
vn 0.8833 0.0548 0.4656
vn 0.9267 -0.1031 0.3615
vn 0.8858 -0.4618 0.0456
vn -1.0000 -0.0076 0.0030
vn -1.0000 -0.0075 0.0031
vn -1.0000 -0.0077 0.0033
vn -1.0000 -0.0074 0.0029
vn -1.0000 -0.0075 0.0030
vn -1.0000 -0.0076 0.0032
vn -1.0000 -0.0080 0.0032
vn -1.0000 -0.0079 0.0032
vn -1.0000 -0.0074 0.0030
vn -1.0000 -0.0074 0.0031
vn -1.0000 -0.0078 0.0031
vn -1.0000 -0.0077 0.0030
vn -1.0000 -0.0076 0.0031
vn -1.0000 -0.0075 0.0032
vn -1.0000 -0.0076 0.0035
vn -1.0000 -0.0077 0.0029
vn -1.0000 -0.0074 0.0028
vn -1.0000 -0.0080 0.0030
vn -1.0000 -0.0077 0.0031
vn -1.0000 -0.0081 0.0031
vn -1.0000 -0.0081 0.0030
vn -1.0000 -0.0075 0.0033
vn -0.0080 0.8101 -0.5862
vn -0.0073 0.6307 -0.7760
vn -0.0072 0.6307 -0.7760
vn -0.0080 0.8100 -0.5863
vn -0.0082 0.9343 -0.3563
vn -0.0081 0.9343 -0.3565
vn -0.0078 0.9947 -0.1026
vn -0.0078 0.9947 -0.1025
vn -0.0071 0.9873 0.1584
vn -0.0072 0.9873 0.1586
vn -0.0058 0.9127 0.4086
vn -0.0040 0.7759 0.6309
vn 0.0001 0.3566 0.9343
vn 0.0001 0.3567 0.9342
vn 0.0022 0.1027 0.9947
vn 0.0022 0.1028 0.9947
vn 0.0042 -0.1584 0.9874
vn 0.0059 -0.4085 0.9127
vn 0.0072 -0.6308 0.7759
vn 0.0080 -0.8101 0.5862
vn 0.0082 -0.9343 0.3565
vn 0.0080 -0.9947 0.1026
vn 0.0071 -0.9874 -0.1584
vn 0.0070 -0.9873 -0.1585
vn 0.0057 -0.9127 -0.4085
vn 0.0020 -0.5861 -0.8102
vn -0.0001 -0.3565 -0.9343
vn -0.0022 -0.1024 -0.9947
vn -0.0022 -0.1025 -0.9947
vn -0.0042 0.1584 -0.9874
vn -0.0059 0.4084 -0.9128
vn -0.7127 0.5674 -0.4123
vn -0.7120 0.4407 -0.5467
vn -0.7857 0.3878 -0.4820
vn -0.7838 0.5049 -0.3616
vn -0.7127 0.6554 -0.2501
vn -0.7763 0.5918 -0.2170
vn -0.7126 0.6981 -0.0702
vn -0.7645 0.6414 -0.0643
vn -0.7119 0.6929 0.1144
vn -0.7757 0.6239 0.0952
vn -0.7110 0.6401 0.2911
vn -0.7824 0.5685 0.2544
vn -0.7097 0.5434 0.4483
vn -0.7837 0.4784 0.3962
vn -0.7081 0.4093 0.5754
vn -0.7800 0.3581 0.5133
vn -0.7067 0.2469 0.6631
vn -0.7710 0.2135 0.6000
vn -0.7053 0.0673 0.7057
vn -0.7575 0.0610 0.6500
vn -0.7039 -0.1174 0.7005
vn -0.7685 -0.0987 0.6322
vn -0.7029 -0.2944 0.6475
vn -0.7751 -0.2580 0.5768
vn -0.7018 -0.4515 0.5511
vn -0.7768 -0.3997 0.4867
vn -0.7013 -0.5784 0.4167
vn -0.7738 -0.5167 0.3663
vn -0.7012 -0.6661 0.2543
vn -0.7659 -0.6035 0.2217
vn -0.7016 -0.7087 0.0746
vn -0.7539 -0.6533 0.0691
vn -0.7021 -0.7036 -0.1098
vn -0.7666 -0.6357 -0.0905
vn -0.7031 -0.6507 -0.2867
vn -0.7752 -0.5803 -0.2497
vn -0.7043 -0.5539 -0.4439
vn -0.7788 -0.4902 -0.3913
vn -0.7058 -0.4198 -0.5706
vn -0.7776 -0.3700 -0.5084
vn -0.7074 -0.2573 -0.6583
vn -0.7713 -0.2252 -0.5953
vn -0.7086 -0.0778 -0.7013
vn -0.7609 -0.0727 -0.6448
vn -0.7097 0.1067 -0.6964
vn -0.7737 0.0869 -0.6275
vn -0.7108 0.2836 -0.6437
vn -0.7825 0.2461 -0.5720
vn -0.9867 0.0995 -0.1288
vn -0.9708 -0.0320 -0.2377
vn -0.9848 -0.1391 -0.1040
vn -0.9842 -0.1146 0.1347
vn -0.9697 0.0175 0.2435
vn -0.9861 0.1242 0.1101
vn -0.9197 0.2449 -0.3071
vn -0.9083 0.1093 -0.4038
vn -0.9139 -0.2589 0.3126
vn -0.9041 -0.1230 0.4092
vn -0.9184 0.3029 0.2547
vn -0.9089 0.3996 0.1191
vn -0.9722 0.2332 -0.0219
vn -0.9151 -0.3169 -0.2492
vn -0.9058 -0.2036 -0.3715
vn -0.9035 -0.4134 -0.1134
vn -0.9684 -0.2480 0.0278
vn -0.9065 0.1899 0.3770
vn -0.8720 0.4871 -0.0483
vn -0.9096 0.3673 -0.1940
vn -0.8690 -0.0577 -0.4914
vn -0.8641 -0.5005 0.0535
vn -0.9027 -0.3812 0.1995
vn -0.8670 0.0443 0.4963
vt 0.171682 0.996847
vt 0.176118 0.996825
vt 0.176118 0.010039
vt 0.171682 0.010060
vt 0.180551 0.996805
vt 0.180551 0.010019
vt 0.184983 0.996787
vt 0.184983 0.010001
vt 0.189414 0.996771
vt 0.189413 0.009985
vt 0.193843 0.996757
vt 0.193842 0.009971
vt 0.198270 0.996745
vt 0.198270 0.009959
vt 0.202696 0.996734
vt 0.202696 0.009948
vt 0.207121 0.996725
vt 0.207120 0.009939
vt 0.211543 0.996718
vt 0.211543 0.009932
vt 0.215964 0.996713
vt 0.215964 0.009927
vt 0.220384 0.996710
vt 0.220384 0.009924
vt 0.225040 0.996709
vt 0.224564 0.009923
vt 0.118247 0.996978
vt 0.122905 0.996977
vt 0.122905 0.010190
vt 0.118724 0.010190
vt 0.127326 0.996974
vt 0.127326 0.010187
vt 0.131751 0.996969
vt 0.131751 0.010182
vt 0.136178 0.996963
vt 0.136178 0.010176
vt 0.140609 0.996955
vt 0.140608 0.010168
vt 0.145043 0.996945
vt 0.145041 0.010158
vt 0.149479 0.996933
vt 0.149478 0.010146
vt 0.153918 0.996920
vt 0.153917 0.010133
vt 0.158360 0.996904
vt 0.158359 0.010117
vt 0.162803 0.996887
vt 0.162803 0.010100
vt 0.167244 0.996868
vt 0.167244 0.010080
vt 0.050280 0.996429
vt 0.054399 0.996438
vt 0.058423 0.052224
vt 0.056287 0.052226
vt 0.058507 0.996440
vt 0.060571 0.052220
vt 0.062601 0.996434
vt 0.062731 0.052212
vt 0.066683 0.996420
vt 0.064903 0.052200
vt 0.070753 0.996400
vt 0.067087 0.052184
vt 0.074812 0.996372
vt 0.069281 0.052165
vt 0.078860 0.996337
vt 0.071487 0.052143
vt 0.082897 0.996296
vt 0.073704 0.052118
vt 0.086922 0.996248
vt 0.075932 0.052090
vt 0.090934 0.996194
vt 0.078173 0.052058
vt 0.094931 0.996135
vt 0.080428 0.052024
vt 0.098912 0.996069
vt 0.082698 0.051986
vt 0.002468 0.995636
vt 0.006017 0.995732
vt 0.031744 0.051860
vt 0.029042 0.051787
vt 0.009145 0.995816
vt 0.034872 0.051944
vt 0.012800 0.995912
vt 0.037471 0.052011
vt 0.016980 0.996012
vt 0.039545 0.052058
vt 0.021159 0.996101
vt 0.041621 0.052099
vt 0.025335 0.996179
vt 0.043700 0.052134
vt 0.029509 0.996246
vt 0.045781 0.052163
vt 0.033681 0.996304
vt 0.047864 0.052187
vt 0.037846 0.996350
vt 0.049955 0.052204
vt 0.042003 0.996386
vt 0.052053 0.052216
vt 0.046148 0.996411
vt 0.054164 0.052223
vt 0.059233 0.047590
vt 0.061820 0.047601
vt 0.061994 0.003980
vt 0.059407 0.003969
vt 0.064408 0.047611
vt 0.064582 0.003990
vt 0.066996 0.047621
vt 0.067170 0.004000
vt 0.069584 0.047632
vt 0.069758 0.004011
vt 0.072172 0.047642
vt 0.072345 0.004021
vt 0.074759 0.047652
vt 0.074933 0.004031
vt 0.077347 0.047662
vt 0.077521 0.004042
vt 0.079935 0.047673
vt 0.080109 0.004052
vt 0.082523 0.047683
vt 0.082696 0.004062
vt 0.085110 0.047693
vt 0.085284 0.004072
vt 0.087698 0.047703
vt 0.087872 0.004083
vt 0.090285 0.047714
vt 0.090459 0.004093
vt 0.028182 0.047465
vt 0.030769 0.047475
vt 0.030943 0.003855
vt 0.028356 0.003844
vt 0.033357 0.047486
vt 0.033531 0.003865
vt 0.035944 0.047496
vt 0.036118 0.003875
vt 0.038532 0.047506
vt 0.038706 0.003886
vt 0.041119 0.047517
vt 0.041293 0.003896
vt 0.043707 0.047527
vt 0.043881 0.003906
vt 0.046294 0.047538
vt 0.046468 0.003917
vt 0.048882 0.047548
vt 0.049056 0.003927
vt 0.051470 0.047558
vt 0.051644 0.003938
vt 0.054057 0.047569
vt 0.054231 0.003948
vt 0.056645 0.047579
vt 0.056819 0.003959
vt 0.090142 0.068152
vt 0.092286 0.070358
vt 0.094144 0.068007
vt 0.092555 0.066376
vt 0.094926 0.071907
vt 0.096116 0.069149
vt 0.097851 0.072725
vt 0.098306 0.069734
vt 0.100888 0.072813
vt 0.100571 0.069826
vt 0.103869 0.072119
vt 0.102793 0.069322
vt 0.106571 0.070649
vt 0.104795 0.068237
vt 0.108777 0.068506
vt 0.106426 0.066648
vt 0.110326 0.065866
vt 0.107568 0.064676
vt 0.111144 0.062940
vt 0.108153 0.062485
vt 0.111232 0.059904
vt 0.108245 0.060221
vt 0.110537 0.056923
vt 0.107741 0.057998
vt 0.109068 0.054221
vt 0.106656 0.055997
vt 0.106925 0.052015
vt 0.105067 0.054366
vt 0.104285 0.050465
vt 0.103095 0.053224
vt 0.101359 0.049648
vt 0.100905 0.052639
vt 0.098323 0.049559
vt 0.098640 0.052546
vt 0.095342 0.050254
vt 0.096418 0.053051
vt 0.092640 0.051724
vt 0.094416 0.054136
vt 0.090434 0.053867
vt 0.092785 0.055725
vt 0.088885 0.056507
vt 0.091643 0.057697
vt 0.088067 0.059433
vt 0.091058 0.059887
vt 0.087979 0.062469
vt 0.090966 0.062152
vt 0.088673 0.065450
vt 0.091470 0.064374
vt 0.099605 0.061186
vt 0.101784 0.059582
vt 0.100167 0.057494
vt 0.098001 0.059007
vt 0.097426 0.062790
vt 0.099044 0.064879
vt 0.101209 0.063365
vt 0.095064 0.064529
vt 0.096666 0.066434
vt 0.104146 0.057844
vt 0.102545 0.055939
vt 0.102948 0.065727
vt 0.104853 0.064126
vt 0.103298 0.061748
vt 0.096263 0.056646
vt 0.098358 0.055302
vt 0.094358 0.058247
vt 0.095913 0.060625
vt 0.100853 0.067070
vt 0.092553 0.060114
vt 0.093721 0.062434
vt 0.098533 0.068239
vt 0.106658 0.062258
vt 0.105489 0.059939
vt 0.100677 0.054133
vt 0.276122 0.953348
vt 0.276122 0.949470
vt 0.274419 0.949467
vt 0.274417 0.953331
vt 0.276110 0.957252
vt 0.274407 0.957215
vt 0.276023 0.961184
vt 0.274321 0.961120
vt 0.275840 0.965127
vt 0.274139 0.965026
vt 0.275559 0.969067
vt 0.273860 0.968924
vt 0.275186 0.973004
vt 0.273485 0.972812
vt 0.274676 0.976919
vt 0.272994 0.976688
vt 0.274115 0.980820
vt 0.272432 0.980555
vt 0.273458 0.984710
vt 0.271780 0.984405
vt 0.272713 0.988586
vt 0.271039 0.988239
vt 0.271882 0.992469
vt 0.270211 0.992040
vt 0.270793 0.996417
vt 0.269263 0.995735
vt 0.276108 0.906887
vt 0.275923 0.902816
vt 0.274290 0.903161
vt 0.274383 0.906959
vt 0.276101 0.910802
vt 0.274392 0.910814
vt 0.276096 0.914675
vt 0.274393 0.914678
vt 0.276098 0.918541
vt 0.274396 0.918542
vt 0.276102 0.922406
vt 0.274400 0.922407
vt 0.276106 0.926271
vt 0.274405 0.926273
vt 0.276111 0.930137
vt 0.274409 0.930138
vt 0.276115 0.934003
vt 0.274413 0.934004
vt 0.276117 0.937869
vt 0.274416 0.937870
vt 0.276119 0.941736
vt 0.274417 0.941736
vt 0.276120 0.945602
vt 0.274418 0.945602
vt 0.265837 0.949465
vt 0.265834 0.953320
vt 0.265829 0.957111
vt 0.265748 0.960825
vt 0.265574 0.964516
vt 0.265309 0.968202
vt 0.264950 0.971879
vt 0.264495 0.975551
vt 0.263957 0.979217
vt 0.263338 0.982871
vt 0.262631 0.986508
vt 0.261827 0.990129
vt 0.260959 0.993760
vt 0.265765 0.903200
vt 0.265783 0.906986
vt 0.265805 0.910822
vt 0.265811 0.914683
vt 0.265816 0.918549
vt 0.265820 0.922415
vt 0.265824 0.926281
vt 0.265829 0.930146
vt 0.265833 0.934010
vt 0.265836 0.937873
vt 0.265837 0.941736
vt 0.265837 0.945601
vt 0.250081 0.966082
vt 0.246027 0.965124
vt 0.245676 0.968683
vt 0.248815 0.969430
vt 0.253717 0.968066
vt 0.251628 0.970989
vt 0.256701 0.970890
vt 0.253910 0.973190
vt 0.258904 0.974358
vt 0.255635 0.975850
vt 0.260160 0.978310
vt 0.256629 0.978907
vt 0.260321 0.982478
vt 0.256761 0.982130
vt 0.259363 0.986534
vt 0.256014 0.985269
vt 0.257378 0.990171
vt 0.254455 0.988083
vt 0.254554 0.993156
vt 0.252254 0.990365
vt 0.251085 0.995360
vt 0.249594 0.992091
vt 0.247130 0.996617
vt 0.246537 0.993084
vt 0.242963 0.996773
vt 0.243314 0.993214
vt 0.238909 0.995815
vt 0.240174 0.992466
vt 0.235273 0.993830
vt 0.237362 0.990907
vt 0.232289 0.991006
vt 0.235079 0.988707
vt 0.230085 0.987539
vt 0.233354 0.986047
vt 0.228829 0.983586
vt 0.232360 0.982989
vt 0.228669 0.979419
vt 0.232228 0.979766
vt 0.229626 0.975362
vt 0.232976 0.976627
vt 0.231612 0.971725
vt 0.234535 0.973814
vt 0.234436 0.968741
vt 0.236736 0.971531
vt 0.237905 0.966536
vt 0.239396 0.969806
vt 0.241859 0.965280
vt 0.242453 0.968813
vt 0.244495 0.980948
vt 0.244832 0.977445
vt 0.241401 0.977194
vt 0.240991 0.980610
vt 0.244157 0.984452
vt 0.247589 0.984702
vt 0.247999 0.981286
vt 0.245201 0.973607
vt 0.241940 0.973489
vt 0.243788 0.988289
vt 0.247050 0.988408
vt 0.251836 0.981656
vt 0.251954 0.978394
vt 0.248248 0.977855
vt 0.237154 0.980241
vt 0.237661 0.977016
vt 0.237036 0.983502
vt 0.240741 0.984042
vt 0.251328 0.984881
vt 0.251767 0.974956
vt 0.248426 0.974116
vt 0.238501 0.973675
vt 0.237223 0.986941
vt 0.240564 0.987781
vt 0.250488 0.988222
s 1
usemtl CueStick.003
f 1/1/1 2/2/2 3/3/3
f 1/1/1 3/3/3 4/4/4
f 2/2/2 5/5/5 6/6/6
f 2/2/2 6/6/6 3/3/3
f 5/5/5 7/7/7 8/8/8
f 5/5/5 8/8/8 6/6/6
f 7/7/7 9/9/9 10/10/10
f 7/7/7 10/10/10 8/8/8
f 9/9/9 11/11/11 12/12/12
f 9/9/9 12/12/12 10/10/10
f 11/11/11 13/13/13 14/14/14
f 11/11/11 14/14/14 12/12/12
f 13/13/13 15/15/15 16/16/16
f 13/13/13 16/16/16 14/14/14
f 15/15/15 17/17/17 18/18/18
f 15/15/15 18/18/18 16/16/16
f 17/17/17 19/19/19 20/20/20
f 17/17/17 20/20/20 18/18/18
f 19/19/19 21/21/21 22/22/22
f 19/19/19 22/22/22 20/20/20
f 21/21/21 23/23/23 24/24/24
f 21/21/21 24/24/24 22/22/22
f 23/23/23 25/25/25 26/26/26
f 23/23/23 26/26/26 24/24/24
f 25/27/25 27/28/27 28/29/28
f 25/27/25 28/29/28 26/30/26
f 27/28/27 29/31/29 30/32/30
f 27/28/27 30/32/30 28/29/28
f 29/31/29 31/33/31 32/34/32
f 29/31/29 32/34/32 30/32/30
f 31/33/31 33/35/33 34/36/34
f 31/33/31 34/36/34 32/34/32
f 33/35/33 35/37/35 36/38/36
f 33/35/33 36/38/36 34/36/34
f 35/37/35 37/39/37 38/40/38
f 35/37/35 38/40/38 36/38/36
f 37/39/37 39/41/39 40/42/40
f 37/39/37 40/42/40 38/40/38
f 39/41/39 41/43/41 42/44/42
f 39/41/39 42/44/42 40/42/40
f 41/43/41 43/45/43 44/46/44
f 41/43/41 44/46/44 42/44/42
f 43/45/43 45/47/45 46/48/46
f 43/45/43 46/48/46 44/46/44
f 45/47/45 47/49/47 48/50/48
f 45/47/45 48/50/48 46/48/46
f 47/49/47 1/1/1 4/4/4
f 47/49/47 4/4/4 48/50/48
f 4/51/4 3/52/3 49/53/49
f 4/51/4 49/53/49 50/54/50
f 3/52/3 6/55/6 51/56/51
f 3/52/3 51/56/51 49/53/49
f 6/55/6 8/57/8 52/58/52
f 6/55/6 52/58/52 51/56/51
f 8/57/8 10/59/10 53/60/53
f 8/57/8 53/60/53 52/58/52
f 10/59/10 12/61/12 54/62/54
f 10/59/10 54/62/54 53/60/53
f 12/61/12 14/63/14 55/64/55
f 12/61/12 55/64/55 54/62/54
f 14/63/14 16/65/16 56/66/56
f 14/63/14 56/66/56 55/64/55
f 16/65/16 18/67/18 57/68/57
f 16/65/16 57/68/57 56/66/56
f 18/67/18 20/69/20 58/70/58
f 18/67/18 58/70/58 57/68/57
f 20/69/20 22/71/22 59/72/59
f 20/69/20 59/72/59 58/70/58
f 22/71/22 24/73/24 60/74/60
f 22/71/22 60/74/60 59/72/59
f 24/73/24 26/75/26 61/76/61
f 24/73/24 61/76/61 60/74/60
f 26/77/26 28/78/28 62/79/62
f 26/77/26 62/79/62 61/80/61
f 28/78/28 30/81/30 63/82/63
f 28/78/28 63/82/63 62/79/62
f 30/81/30 32/83/32 64/84/64
f 30/81/30 64/84/64 63/82/63
f 32/83/32 34/85/34 65/86/65
f 32/83/32 65/86/65 64/84/64
f 34/85/34 36/87/36 66/88/66
f 34/85/34 66/88/66 65/86/65
f 36/87/36 38/89/38 67/90/67
f 36/87/36 67/90/67 66/88/66
f 38/89/38 40/91/40 68/92/68
f 38/89/38 68/92/68 67/90/67
f 40/91/40 42/93/42 69/94/69
f 40/91/40 69/94/69 68/92/68
f 42/93/42 44/95/44 70/96/70
f 42/93/42 70/96/70 69/94/69
f 44/95/44 46/97/46 71/98/71
f 44/95/44 71/98/71 70/96/70
f 46/97/46 48/99/48 72/100/72
f 46/97/46 72/100/72 71/98/71
f 48/99/48 4/51/4 50/54/50
f 48/99/48 50/54/50 72/100/72
f 50/101/50 49/102/49 73/103/73
f 50/101/50 73/103/73 74/104/74
f 49/102/49 51/105/51 75/106/75
f 49/102/49 75/106/75 73/103/73
f 51/105/51 52/107/52 76/108/76
f 51/105/51 76/108/76 75/106/75
f 52/107/52 53/109/53 77/110/77
f 52/107/52 77/110/77 76/108/76
f 53/109/53 54/111/54 78/112/78
f 53/109/53 78/112/78 77/110/77
f 54/111/54 55/113/55 79/114/79
f 54/111/54 79/114/79 78/112/78
f 55/113/55 56/115/56 80/116/80
f 55/113/55 80/116/80 79/114/79
f 56/115/56 57/117/57 81/118/81
f 56/115/56 81/118/81 80/116/80
f 57/117/57 58/119/58 82/120/82
f 57/117/57 82/120/82 81/118/81
f 58/119/58 59/121/59 83/122/83
f 58/119/58 83/122/83 82/120/82
f 59/121/59 60/123/60 84/124/84
f 59/121/59 84/124/84 83/122/83
f 60/123/60 61/125/61 85/126/85
f 60/123/60 85/126/85 84/124/84
f 61/127/61 62/128/62 86/129/86
f 61/127/61 86/129/86 85/130/85
f 62/128/62 63/131/63 87/132/87
f 62/128/62 87/132/87 86/129/86
f 63/131/63 64/133/64 88/134/88
f 63/131/63 88/134/88 87/132/87
f 64/133/64 65/135/65 89/136/89
f 64/133/64 89/136/89 88/134/88
f 65/135/65 66/137/66 90/138/90
f 65/135/65 90/138/90 89/136/89
f 66/137/66 67/139/67 91/140/91
f 66/137/66 91/140/91 90/138/90
f 67/139/67 68/141/68 92/142/92
f 67/139/67 92/142/92 91/140/91
f 68/141/68 69/143/69 93/144/93
f 68/141/68 93/144/93 92/142/92
f 69/143/69 70/145/70 94/146/94
f 69/143/69 94/146/94 93/144/93
f 70/145/70 71/147/71 95/148/95
f 70/145/70 95/148/95 94/146/94
f 71/147/71 72/149/72 96/150/96
f 71/147/71 96/150/96 95/148/95
f 72/149/72 50/101/50 74/104/74
f 72/149/72 74/104/74 96/150/96
f 74/151/97 73/152/98 97/153/99
f 74/151/97 97/153/99 98/154/100
f 73/152/98 75/155/101 99/156/102
f 73/152/98 99/156/102 97/153/99
f 75/155/101 76/157/103 100/158/104
f 75/155/101 100/158/104 99/156/102
f 76/157/103 77/159/105 101/160/106
f 76/157/103 101/160/106 100/158/104
f 77/159/105 78/161/107 102/162/108
f 77/159/105 102/162/108 101/160/106
f 78/161/107 79/163/109 103/164/110
f 78/161/107 103/164/110 102/162/108
f 79/163/109 80/165/111 104/166/112
f 79/163/109 104/166/112 103/164/110
f 80/165/111 81/167/113 105/168/114
f 80/165/111 105/168/114 104/166/112
f 81/167/113 82/169/115 106/170/116
f 81/167/113 106/170/116 105/168/114
f 82/169/115 83/171/117 107/172/118
f 82/169/115 107/172/118 106/170/116
f 83/171/117 84/173/119 108/174/120
f 83/171/117 108/174/120 107/172/118
f 84/173/119 85/175/121 109/176/122
f 84/173/119 109/176/122 108/174/120
f 85/175/121 86/177/123 110/178/124
f 85/175/121 110/178/124 109/176/122
f 86/177/123 87/179/125 111/180/126
f 86/177/123 111/180/126 110/178/124
f 87/179/125 88/181/127 112/182/128
f 87/179/125 112/182/128 111/180/126
f 88/181/127 89/183/129 113/184/130
f 88/181/127 113/184/130 112/182/128
f 89/183/129 90/185/131 114/186/132
f 89/183/129 114/186/132 113/184/130
f 90/185/131 91/187/133 115/188/134
f 90/185/131 115/188/134 114/186/132
f 91/187/133 92/189/135 116/190/136
f 91/187/133 116/190/136 115/188/134
f 92/189/135 93/191/137 117/192/138
f 92/189/135 117/192/138 116/190/136
f 93/191/137 94/193/139 118/194/140
f 93/191/137 118/194/140 117/192/138
f 94/193/139 95/195/141 119/196/142
f 94/193/139 119/196/142 118/194/140
f 95/195/141 96/197/143 120/198/144
f 95/195/141 120/198/144 119/196/142
f 96/197/143 74/151/97 98/154/100
f 96/197/143 98/154/100 120/198/144
f 121/199/145 122/200/146 123/201/147
f 121/199/145 123/201/147 124/202/148
f 121/199/145 125/203/149 126/204/150
f 121/199/145 126/204/150 127/205/151
f 125/203/149 128/206/152 129/207/153
f 125/203/149 129/207/153 126/204/150
f 122/200/146 130/208/154 131/209/155
f 122/200/146 131/209/155 123/201/147
f 132/210/156 103/164/110 104/166/112
f 132/210/156 104/166/112 133/211/157
f 127/205/151 132/210/156 133/211/157
f 127/205/151 133/211/157 134/212/158
f 121/199/145 127/205/151 134/212/158
f 121/199/145 134/212/158 122/200/146
f 114/186/132 115/188/134 135/213/159
f 114/186/132 135/213/159 136/214/160
f 136/214/160 135/213/159 124/202/148
f 136/214/160 124/202/148 123/201/147
f 135/213/159 115/188/134 116/190/136
f 135/213/159 116/190/136 137/215/161
f 124/202/148 135/213/159 137/215/161
f 124/202/148 137/215/161 138/216/162
f 121/199/145 124/202/148 138/216/162
f 121/199/145 138/216/162 125/203/149
f 102/162/108 103/164/110 132/210/156
f 102/162/108 132/210/156 139/217/163
f 139/217/163 132/210/156 127/205/151
f 139/217/163 127/205/151 126/204/150
f 137/215/161 116/190/136 117/192/138
f 137/215/161 117/192/138 140/218/164
f 138/216/162 137/215/161 140/218/164
f 138/216/162 140/218/164 141/219/165
f 125/203/149 138/216/162 141/219/165
f 125/203/149 141/219/165 128/206/152
f 101/160/106 102/162/108 139/217/163
f 101/160/106 139/217/163 142/220/166
f 142/220/166 139/217/163 126/204/150
f 142/220/166 126/204/150 129/207/153
f 133/211/157 104/166/112 105/168/114
f 133/211/157 105/168/114 143/221/167
f 134/212/158 133/211/157 143/221/167
f 134/212/158 143/221/167 144/222/168
f 122/200/146 134/212/158 144/222/168
f 122/200/146 144/222/168 130/208/154
f 113/184/130 114/186/132 136/214/160
f 113/184/130 136/214/160 145/223/169
f 145/223/169 136/214/160 123/201/147
f 145/223/169 123/201/147 131/209/155
f 106/170/116 107/172/118 143/221/167
f 106/170/116 143/221/167 105/168/114
f 144/222/168 143/221/167 107/172/118
f 144/222/168 107/172/118 108/174/120
f 108/174/120 109/176/122 130/208/154
f 108/174/120 130/208/154 144/222/168
f 130/208/154 109/176/122 110/178/124
f 130/208/154 110/178/124 131/209/155
f 111/180/126 145/223/169 131/209/155
f 111/180/126 131/209/155 110/178/124
f 145/223/169 111/180/126 112/182/128
f 145/223/169 112/182/128 113/184/130
f 118/194/140 119/196/142 140/218/164
f 118/194/140 140/218/164 117/192/138
f 141/219/165 140/218/164 119/196/142
f 141/219/165 119/196/142 120/198/144
f 120/198/144 98/154/100 128/206/152
f 120/198/144 128/206/152 141/219/165
f 128/206/152 98/154/100 97/153/99
f 128/206/152 97/153/99 129/207/153
f 129/207/153 97/153/99 99/156/102
f 129/207/153 99/156/102 142/220/166
f 142/220/166 99/156/102 100/158/104
f 142/220/166 100/158/104 101/160/106
f 2/224/170 1/225/171 146/226/172
f 2/224/170 146/226/172 147/227/173
f 5/228/174 2/224/170 147/227/173
f 5/228/174 147/227/173 148/229/175
f 7/230/176 5/228/174 148/229/175
f 7/230/176 148/229/175 149/231/177
f 9/232/174 7/230/176 149/231/177
f 9/232/174 149/231/177 150/233/178
f 11/234/179 9/232/174 150/233/178
f 11/234/179 150/233/178 151/235/180
f 13/236/181 11/234/179 151/235/180
f 13/236/181 151/235/180 152/237/179
f 15/238/181 13/236/181 152/237/179
f 15/238/181 152/237/179 153/239/170
f 17/240/180 15/238/181 153/239/170
f 17/240/180 153/239/170 154/241/182
f 19/242/183 17/240/180 154/241/182
f 19/242/183 154/241/182 155/243/184
f 21/244/181 19/242/183 155/243/184
f 21/244/181 155/243/184 156/245/185
f 23/246/182 21/244/181 156/245/185
f 23/246/182 156/245/185 157/247/186
f 25/248/173 23/246/182 157/247/186
f 25/248/173 157/247/186 158/249/173
f 27/250/187 25/251/173 158/252/173
f 27/250/187 158/252/173 159/253/181
f 29/254/170 27/250/187 159/253/181
f 29/254/170 159/253/181 160/255/188
f 31/256/189 29/254/170 160/255/188
f 31/256/189 160/255/188 161/257/187
f 33/258/181 31/256/189 161/257/187
f 33/258/181 161/257/187 162/259/190
f 35/260/171 33/258/181 162/259/190
f 35/260/171 162/259/190 163/261/171
f 37/262/183 35/260/171 163/261/171
f 37/262/183 163/261/171 164/263/190
f 39/264/181 37/262/183 164/263/190
f 39/264/181 164/263/190 165/265/191
f 41/266/181 39/264/181 165/265/191
f 41/266/181 165/265/191 166/267/185
f 43/268/185 41/266/181 166/267/185
f 43/268/185 166/267/185 167/269/181
f 45/270/182 43/268/185 167/269/181
f 45/270/182 167/269/181 168/271/170
f 47/272/188 45/270/182 168/271/170
f 47/272/188 168/271/170 169/273/185
f 1/225/171 47/272/188 169/273/185
f 1/225/171 169/273/185 146/226/172
f 147/227/192 146/226/193 170/274/194
f 147/227/192 170/274/194 171/275/195
f 148/229/196 147/227/192 171/275/195
f 148/229/196 171/275/195 172/276/197
f 149/231/198 148/229/196 172/276/197
f 149/231/198 172/276/197 173/277/199
f 150/233/200 149/231/198 173/277/199
f 150/233/200 173/277/199 174/278/201
f 151/235/202 150/233/200 174/278/201
f 151/235/202 174/278/201 175/279/202
f 152/237/203 151/235/202 175/279/202
f 152/237/203 175/279/202 176/280/79
f 153/239/80 152/237/203 176/280/79
f 153/239/80 176/280/79 177/281/80
f 154/241/204 153/239/80 177/281/80
f 154/241/204 177/281/80 178/282/205
f 155/243/206 154/241/204 178/282/205
f 155/243/206 178/282/205 179/283/207
f 156/245/208 155/243/206 179/283/207
f 156/245/208 179/283/207 180/284/208
f 157/247/209 156/245/208 180/284/208
f 157/247/209 180/284/208 181/285/84
f 158/249/210 157/247/209 181/285/84
f 158/249/210 181/285/84 182/286/210
f 159/253/211 158/252/210 182/287/210
f 159/253/211 182/287/210 183/288/211
f 160/255/87 159/253/211 183/288/211
f 160/255/87 183/288/211 184/289/212
f 161/257/213 160/255/87 184/289/212
f 161/257/213 184/289/212 185/290/213
f 162/259/214 161/257/213 185/290/213
f 162/259/214 185/290/213 186/291/215
f 163/261/216 162/259/214 186/291/215
f 163/261/216 186/291/215 187/292/216
f 164/263/91 163/261/216 187/292/216
f 164/263/91 187/292/216 188/293/91
f 165/265/217 164/263/91 188/293/91
f 165/265/217 188/293/91 189/294/217
f 166/267/218 165/265/217 189/294/217
f 166/267/218 189/294/217 190/295/218
f 167/269/219 166/267/218 190/295/218
f 167/269/219 190/295/218 191/296/220
f 168/271/221 167/269/219 191/296/220
f 168/271/221 191/296/220 192/297/221
f 169/273/222 168/271/221 192/297/221
f 169/273/222 192/297/221 193/298/222
f 146/226/193 169/273/222 193/298/222
f 146/226/193 193/298/222 170/274/194
f 171/299/223 170/300/224 194/301/225
f 171/299/223 194/301/225 195/302/226
f 172/303/227 171/299/223 195/302/226
f 172/303/227 195/302/226 196/304/228
f 173/305/229 172/303/227 196/304/228
f 173/305/229 196/304/228 197/306/230
f 174/307/231 173/305/229 197/306/230
f 174/307/231 197/306/230 198/308/232
f 175/309/233 174/307/231 198/308/232
f 175/309/233 198/308/232 199/310/234
f 176/311/235 175/309/233 199/310/234
f 176/311/235 199/310/234 200/312/236
f 177/313/237 176/311/235 200/312/236
f 177/313/237 200/312/236 201/314/238
f 178/315/239 177/313/237 201/314/238
f 178/315/239 201/314/238 202/316/240
f 179/317/241 178/315/239 202/316/240
f 179/317/241 202/316/240 203/318/242
f 180/319/243 179/317/241 203/318/242
f 180/319/243 203/318/242 204/320/244
f 181/321/245 180/319/243 204/320/244
f 181/321/245 204/320/244 205/322/246
f 182/323/247 181/321/245 205/322/246
f 182/323/247 205/322/246 206/324/248
f 183/325/249 182/323/247 206/324/248
f 183/325/249 206/324/248 207/326/250
f 184/327/251 183/325/249 207/326/250
f 184/327/251 207/326/250 208/328/252
f 185/329/253 184/327/251 208/328/252
f 185/329/253 208/328/252 209/330/254
f 186/331/255 185/329/253 209/330/254
f 186/331/255 209/330/254 210/332/256
f 187/333/257 186/331/255 210/332/256
f 187/333/257 210/332/256 211/334/258
f 188/335/259 187/333/257 211/334/258
f 188/335/259 211/334/258 212/336/260
f 189/337/261 188/335/259 212/336/260
f 189/337/261 212/336/260 213/338/262
f 190/339/263 189/337/261 213/338/262
f 190/339/263 213/338/262 214/340/264
f 191/341/265 190/339/263 214/340/264
f 191/341/265 214/340/264 215/342/266
f 192/343/267 191/341/265 215/342/266
f 192/343/267 215/342/266 216/344/268
f 193/345/269 192/343/267 216/344/268
f 193/345/269 216/344/268 217/346/270
f 170/300/224 193/345/269 217/346/270
f 170/300/224 217/346/270 194/301/225
f 218/347/174 219/348/271 220/349/272
f 218/347/174 220/349/272 221/350/273
f 218/347/174 222/351/274 223/352/275
f 218/347/174 223/352/275 224/353/276
f 219/348/271 225/354/277 226/355/278
f 219/348/271 226/355/278 220/349/272
f 222/351/274 227/356/279 228/357/280
f 222/351/274 228/357/280 223/352/275
f 229/358/281 200/312/236 199/310/234
f 229/358/281 199/310/234 230/359/282
f 224/353/276 229/358/281 230/359/282
f 224/353/276 230/359/282 231/360/283
f 218/347/174 224/353/276 231/360/283
f 218/347/174 231/360/283 219/348/271
f 213/338/262 212/336/260 232/361/284
f 213/338/262 232/361/284 233/362/285
f 233/362/285 232/361/284 221/350/273
f 233/362/285 221/350/273 220/349/272
f 232/361/284 212/336/260 211/334/258
f 232/361/284 211/334/258 234/363/286
f 221/350/273 232/361/284 234/363/286
f 221/350/273 234/363/286 235/364/287
f 218/347/174 221/350/273 235/364/287
f 218/347/174 235/364/287 222/351/274
f 201/314/238 200/312/236 229/358/281
f 201/314/238 229/358/281 236/365/288
f 236/365/288 229/358/281 224/353/276
f 236/365/288 224/353/276 223/352/275
f 230/359/282 199/310/234 198/308/232
f 230/359/282 198/308/232 237/366/289
f 231/360/283 230/359/282 237/366/289
f 231/360/283 237/366/289 238/367/290
f 219/348/271 231/360/283 238/367/290
f 219/348/271 238/367/290 225/354/277
f 214/340/264 213/338/262 233/362/285
f 214/340/264 233/362/285 239/368/291
f 239/368/291 233/362/285 220/349/272
f 239/368/291 220/349/272 226/355/278
f 234/363/286 211/334/258 210/332/256
f 234/363/286 210/332/256 240/369/292
f 235/364/287 234/363/286 240/369/292
f 235/364/287 240/369/292 241/370/293
f 222/351/274 235/364/287 241/370/293
f 222/351/274 241/370/293 227/356/279
f 202/316/240 201/314/238 236/365/288
f 202/316/240 236/365/288 242/371/294
f 242/371/294 236/365/288 223/352/275
f 242/371/294 223/352/275 228/357/280
f 203/318/242 202/316/240 242/371/294
f 203/318/242 242/371/294 204/320/244
f 228/357/280 205/322/246 204/320/244
f 228/357/280 204/320/244 242/371/294
f 205/322/246 228/357/280 227/356/279
f 205/322/246 227/356/279 206/324/248
f 227/356/279 241/370/293 207/326/250
f 227/356/279 207/326/250 206/324/248
f 208/328/252 207/326/250 241/370/293
f 208/328/252 241/370/293 240/369/292
f 240/369/292 210/332/256 209/330/254
f 240/369/292 209/330/254 208/328/252
f 215/342/266 214/340/264 239/368/291
f 215/342/266 239/368/291 216/344/268
f 226/355/278 217/346/270 216/344/268
f 226/355/278 216/344/268 239/368/291
f 217/346/270 226/355/278 225/354/277
f 217/346/270 225/354/277 194/301/225
f 225/354/277 238/367/290 195/302/226
f 225/354/277 195/302/226 194/301/225
f 196/304/228 195/302/226 238/367/290
f 196/304/228 238/367/290 237/366/289
f 237/366/289 198/308/232 197/306/230
f 237/366/289 197/306/230 196/304/228
